PathFileType	4	(X/Y/Z)	./resultDataOpenSim/trcMotMarkerGrf/sub10/qtm-01-04.trc
DataRate	CameraRate	NumFrames	NumMarkers	Units	OrigDataRate	OrigDataStartFrame	OrigNumFrames
250.000000	250.000000	14	24	m	250.000000	117	467
Frame#	Time	L.Toe.Tip			R.Toe.Tip			L.Ankle.Lat			R.Ankle.Lat			L.Ankle.Med			R.Ankle.Med			L.Heel			R.Heel			L.Knee.Lat			R.Knee.Lat			L.Knee.Med			R.Knee.Med			L.Thigh.Upper			R.Thigh.Upper			L.ASIS			R.ASIS			V.Sacral			L.Acromium			R.Acromium			C7			L.Elbow			R.Elbow			L.Wrist.Lat			R.Wrist.Lat
		X1	Y1	Z1	X2	Y2	Z2	X3	Y3	Z3	X4	Y4	Z4	X5	Y5	Z5	X6	Y6	Z6	X7	Y7	Z7	X8	Y8	Z8	X9	Y9	Z9	X10	Y10	Z10	X11	Y11	Z11	X12	Y12	Z12	X13	Y13	Z13	X14	Y14	Z14	X15	Y15	Z15	X16	Y16	Z16	X17	Y17	Z17	X18	Y18	Z18	X19	Y19	Z19	X20	Y20	Z20	X21	Y21	Z21	X22	Y22	Z22	X23	Y23	Z23	X24	Y24	Z24

117	0.464	-0.43103927	0.060995624	-0.15093036	-0.73954897	0.039434726	-0.006145179	-0.56418229	0.081780838	-0.15216349	-0.88519634	0.053739899	0.031939611	-0.53757361	0.10661548	-0.072987424	-0.86090853	0.085320446	-0.049462839	-0.61779103	0.051630227	-0.090146023	-0.93158816	0.032852483	-0.018538051	-0.53839416	0.47360898	-0.18861683	-0.79381258	0.45099273	0.086844262	-0.5044136	0.45335461	-0.072308712	-0.78057788	0.45101473	-0.043731853	-0.6643412	0.83412827	-0.24205498	-0.72583648	0.86046557	0.13733432	-0.61891678	0.94514076	-0.17003109	-0.63861415	0.94785232	0.074263493	-0.8260755	0.96340669	-0.068722259	-0.69301782	1.4219746	-0.21396687	-0.6902283	1.4117527	0.11040783	-0.77444929	1.4446627	-0.052886372	-0.82741471	1.1060571	-0.26527535	-0.71391738	1.0601075	0.18095255	-0.71074156	0.88822553	-0.28744397	-0.51667884	0.91169784	0.21075519
118	0.468	-0.41148192	0.06272136	-0.14978468	-0.73969412	0.039334766	-0.0061334687	-0.54512217	0.080245501	-0.15110326	-0.8852427	0.053835202	0.031769865	-0.51929067	0.10595966	-0.07192368	-0.86076807	0.085277619	-0.049728474	-0.5980867	0.049026603	-0.089001287	-0.93157081	0.032889918	-0.018694334	-0.53029788	0.47211977	-0.1879801	-0.79204275	0.45048339	0.086503506	-0.49631965	0.45318665	-0.071570396	-0.77823785	0.45064475	-0.04396384	-0.65720672	0.83343983	-0.24208176	-0.72180386	0.85968303	0.13711762	-0.61230177	0.94426249	-0.16969745	-0.63375186	0.94683577	0.074701698	-0.82121103	0.96205643	-0.070770036	-0.68743608	1.4207959	-0.21371803	-0.68412303	1.4106632	0.11060873	-0.76882754	1.443589	-0.053402409	-0.82355128	1.1055391	-0.26522309	-0.70554059	1.0589176	0.18204067	-0.70819902	0.88704253	-0.28785956	-0.50612196	0.91301631	0.21034317
119	0.472	-0.39206275	0.06461335	-0.14845403	-0.73978069	0.039242946	-0.0061262273	-0.52618201	0.078964535	-0.15013515	-0.88509404	0.053927591	0.031432245	-0.50113738	0.10556029	-0.070880578	-0.86064186	0.085222518	-0.050037679	-0.57851582	0.046758393	-0.087976361	-0.93155977	0.032985469	-0.019067783	-0.52199527	0.47049968	-0.1875289	-0.79015951	0.44994823	0.086112733	-0.48836267	0.45290022	-0.070867072	-0.77579491	0.45025093	-0.04421631	-0.65011083	0.83265694	-0.24212709	-0.71771136	0.85885642	0.1368859	-0.60574867	0.94328798	-0.1694304	-0.62885744	0.94578641	0.075096878	-0.81606293	0.96059115	-0.072605021	-0.68186142	1.4195501	-0.213476	-0.6780127	1.4095075	0.11080676	-0.76323121	1.442452	-0.053981266	-0.81973513	1.104968	-0.26533831	-0.69717011	1.0576922	0.18311208	-0.70563262	0.88580634	-0.28827863	-0.49562278	0.91431271	0.20990131
120	0.476	-0.37282531	0.066670634	-0.14694068	-0.73979689	0.039160323	-0.0061297956	-0.50733644	0.077908759	-0.14924422	-0.88484629	0.054018964	0.031027166	-0.48312247	0.10540263	-0.069885554	-0.86054352	0.085149844	-0.050421905	-0.55910815	0.044775888	-0.087123167	-0.93155495	0.033146568	-0.019624334	-0.51386798	0.46905043	-0.1872402	-0.78799368	0.44942075	0.085737628	-0.48068529	0.45247026	-0.070306433	-0.77324703	0.44982996	-0.044501363	-0.64304817	0.83177334	-0.24220071	-0.71353965	0.8579895	0.136615	-0.59931234	0.94223456	-0.16924654	-0.62392404	0.94470713	0.075435785	-0.81045652	0.95900179	-0.073962066	-0.67627833	1.4182358	-0.21324508	-0.67190087	1.4082793	0.11100151	-0.7575264	1.4412578	-0.054257217	-0.81566096	1.104331	-0.26511944	-0.68881013	1.0564308	0.18417094	-0.70303265	0.8845226	-0.28872147	-0.48516493	0.91559196	0.20941438
121	0.48	-0.35381698	0.068890624	-0.14526974	-0.73977554	0.039062689	-0.0061630076	-0.48855904	0.077050483	-0.14841196	-0.88464492	0.054120815	0.030699018	-0.46529398	0.10544733	-0.068986793	-0.86045189	0.085058569	-0.050885055	-0.53991388	0.043047247	-0.086497672	-0.93154529	0.033328681	-0.020164405	-0.50603926	0.46782221	-0.18705592	-0.78552477	0.44890117	0.085377546	-0.47329175	0.45190294	-0.069902592	-0.77059671	0.44937825	-0.044836375	-0.6359752	0.830803	-0.24232012	-0.70930341	0.85710524	0.13631979	-0.59292516	0.94113489	-0.16912431	-0.61894853	0.94359815	0.075717705	-0.80424118	0.95734299	-0.074519215	-0.67064163	1.4168529	-0.21302252	-0.66577699	1.4069716	0.11118478	-0.75168307	1.4400021	-0.054139562	-0.81110287	1.1036174	-0.26416091	-0.68046505	1.0551324	0.18521968	-0.70040334	0.88319143	-0.2891997	-0.4747494	0.91685331	0.20888533
122	0.484	-0.33507816	0.071286709	-0.14349001	-0.73974537	0.038935668	-0.0062390311	-0.46990855	0.076380377	-0.14765496	-0.884588	0.054242366	0.03048289	-0.44772925	0.10564779	-0.068228139	-0.86032524	0.084960576	-0.051390525	-0.52096354	0.041556462	-0.086131406	-0.93152212	0.033496977	-0.020555349	-0.49839442	0.46668535	-0.18693221	-0.78285918	0.44835664	0.084988791	-0.46607264	0.45122578	-0.069588679	-0.76784424	0.44889393	-0.045225279	-0.62889216	0.82976324	-0.24248313	-0.70503428	0.85621926	0.13604464	-0.58650536	0.94000728	-0.16903276	-0.61393654	0.94245645	0.075953447	-0.79723567	0.95573761	-0.074020031	-0.66489775	1.4154088	-0.21279827	-0.65962621	1.4055872	0.11134569	-0.7457681	1.4386837	-0.053798387	-0.80621893	1.1028274	-0.26269242	-0.6721429	1.0537991	0.18625926	-0.69776939	0.88180873	-0.28971441	-0.46438713	0.91808853	0.20831669
123	0.488	-0.31663658	0.073899309	-0.14165823	-0.73970096	0.038798668	-0.0063505893	-0.45149169	0.075910331	-0.14702183	-0.88461904	0.054395172	0.030286579	-0.43049952	0.10597467	-0.067609206	-0.8601366	0.084873873	-0.051893037	-0.50217533	0.040214562	-0.086050013	-0.93148741	0.033656611	-0.020820774	-0.49080537	0.46552856	-0.18682286	-0.78009785	0.44775619	0.084549065	-0.45892569	0.45046343	-0.069291977	-0.76498335	0.44837672	-0.045650625	-0.62181025	0.82866348	-0.24266369	-0.70073867	0.85531725	0.1358119	-0.58002817	0.93884837	-0.16896343	-0.60889433	0.94127678	0.07615125	-0.7896821	0.95425114	-0.072918213	-0.65905091	1.4139144	-0.21257253	-0.65343146	1.4041392	0.11147885	-0.73984939	1.4373097	-0.053417022	-0.80142051	1.1019719	-0.26133673	-0.66385652	1.0524379	0.18729453	-0.69514699	0.88037177	-0.29025736	-0.45408266	0.91928944	0.20770484
124	0.492	-0.29851328	0.076782983	-0.13981582	-0.73961901	0.038686112	-0.0064763608	-0.43338061	0.075658563	-0.14655686	-0.88461864	0.054591266	0.030027066	-0.41367085	0.10640781	-0.067082484	-0.85988795	0.084805736	-0.052378643	-0.48336751	0.038802794	-0.086301754	-0.93144945	0.033829873	-0.021041263	-0.48321129	0.4643166	-0.18667379	-0.77723789	0.4471061	0.08407973	-0.4518082	0.44962825	-0.068968529	-0.76200266	0.44782869	-0.046092792	-0.61466673	0.82750721	-0.24283182	-0.69639282	0.85437815	0.13559772	-0.57349925	0.93764819	-0.16892289	-0.60382512	0.94005506	0.076308988	-0.78242404	0.95276754	-0.072408068	-0.65318958	1.4123736	-0.21236388	-0.64718281	1.4026382	0.11158838	-0.73395067	1.4358855	-0.053075207	-0.79692945	1.1010612	-0.2604042	-0.65561857	1.0510577	0.18833595	-0.69250991	0.87888334	-0.2908102	-0.44383508	0.92045343	0.20705325
125	0.496	-0.28073657	0.079978595	-0.13797755	-0.73949458	0.038609702	-0.0066014058	-0.41559628	0.075640208	-0.14626607	-0.88455174	0.054821691	0.029702591	-0.39730896	0.10691985	-0.066596448	-0.85959557	0.084752053	-0.052855	-0.46445668	0.037151506	-0.086900699	-0.93141477	0.034034221	-0.02127997	-0.47560047	0.46305948	-0.18643899	-0.77418274	0.44644967	0.083622708	-0.44471794	0.44871752	-0.068600671	-0.75888454	0.44725579	-0.046547349	-0.60740406	0.82629209	-0.24298079	-0.69198409	0.85341452	0.13537128	-0.5669227	0.93640056	-0.16890384	-0.5987293	0.93879313	0.076420978	-0.77618476	0.95108876	-0.073348781	-0.64740631	1.4107836	-0.21218737	-0.64089579	1.4010839	0.11168398	-0.72806523	1.4344112	-0.052777156	-0.79263228	1.1000931	-0.25975536	-0.64743646	1.0496659	0.18939431	-0.68980458	0.87735446	-0.29135719	-0.43364855	0.92158165	0.20637522
126	0.5	-0.26335035	0.083496464	-0.13614018	-0.73934844	0.038555746	-0.0067221809	-0.39814574	0.075866457	-0.14612451	-0.88444245	0.055055232	0.029350679	-0.38143769	0.10749283	-0.06614481	-0.85927843	0.084710206	-0.053321574	-0.44566973	0.035407583	-0.087751371	-0.93138383	0.034275587	-0.021568838	-0.46796781	0.46178534	-0.1861049	-0.77086532	0.44582365	0.083197426	-0.43766005	0.4477174	-0.0681804	-0.75559676	0.4466714	-0.047009654	-0.60009123	0.82500737	-0.2431337	-0.68753375	0.85246427	0.13513925	-0.56030283	0.93511085	-0.16888265	-0.59360403	0.93749708	0.07648909	-0.77084957	0.94915489	-0.075478251	-0.64171577	1.4091392	-0.21204926	-0.63460767	1.3994743	0.11176928	-0.72218075	1.4328887	-0.052504845	-0.78832066	1.0990633	-0.25917057	-0.63931051	1.0482649	0.19047316	-0.68699899	0.8758025	-0.2918999	-0.42353225	0.92267443	0.20567878
127	0.504	-0.24640316	0.087310629	-0.13429474	-0.73920555	0.038508522	-0.0068374187	-0.381046	0.076331345	-0.14610622	-0.88428709	0.055270858	0.029015342	-0.36601334	0.10813938	-0.065762748	-0.85895031	0.084681594	-0.053772968	-0.42739661	0.03391472	-0.088713102	-0.93135285	0.034550621	-0.021900445	-0.46028897	0.46051689	-0.18569449	-0.7673508	0.44521744	0.082774596	-0.43063189	0.44662095	-0.067694549	-0.75209354	0.4460924	-0.04745582	-0.59283308	0.82364389	-0.2433082	-0.68305211	0.85152981	0.13491608	-0.55365815	0.9337973	-0.16884626	-0.58844875	0.93617076	0.076523047	-0.76571318	0.94708294	-0.077857833	-0.63607104	1.4074361	-0.21195712	-0.62835777	1.3978134	0.11183341	-0.71629008	1.4313282	-0.052245984	-0.78388306	1.0979833	-0.25851878	-0.63122898	1.0468525	0.1915604	-0.6840955	0.87423832	-0.29244929	-0.41349284	0.92373099	0.20495921
128	0.508	-0.22993315	0.091352591	-0.13242998	-0.7390773	0.038460599	-0.0069437103	-0.36432418	0.076995003	-0.14619512	-0.88407676	0.055475991	0.028733893	-0.35096749	0.10888474	-0.065499051	-0.85861491	0.084666831	-0.054210431	-0.4098183	0.032830469	-0.089727184	-0.93131793	0.034853422	-0.022233196	-0.45253828	0.45926282	-0.18523462	-0.76378557	0.44458534	0.082305317	-0.42363514	0.44543557	-0.067131384	-0.74836258	0.44551885	-0.047868707	-0.5856272	0.8222053	-0.24348591	-0.67849024	0.85054832	0.13466462	-0.54702557	0.93247209	-0.16879926	-0.58326739	0.93481346	0.07653392	-0.76022909	0.9450189	-0.079794699	-0.6304178	1.4056867	-0.21190026	-0.62216642	1.396108	0.11186512	-0.71038837	1.4297451	-0.051996761	-0.77931541	1.0968659	-0.25775765	-0.62316179	1.0454236	0.19262144	-0.68111659	0.87265614	-0.29301398	-0.40353027	0.92475104	0.20420727
129	0.512	-0.21396987	0.095514664	-0.130538	-0.73896125	0.038410978	-0.0070353187	-0.34800438	0.077800675	-0.14636795	-0.88384499	0.055686134	0.028519873	-0.33626762	0.1097278	-0.065404939	-0.85827617	0.084666865	-0.054629878	-0.39287685	0.032083682	-0.0908163	-0.93127713	0.035181167	-0.022524496	-0.44469946	0.45803274	-0.18475244	-0.7602679	0.44388765	0.081770805	-0.41669243	0.44416792	-0.066496111	-0.74448461	0.44491792	-0.048276849	-0.57840095	0.82070035	-0.24363056	-0.67378622	0.84945315	0.13432315	-0.54041902	0.93113044	-0.16873786	-0.57805978	0.93342433	0.076530126	-0.75433401	0.94303155	-0.081221199	-0.62472686	1.4039233	-0.21184904	-0.6160074	1.3943638	0.11187752	-0.70447322	1.428148	-0.051756928	-0.77467826	1.0957045	-0.25697223	-0.61506172	1.0439694	0.19360242	-0.67811111	0.87104368	-0.29360309	-0.39363722	0.92573409	0.20341566
130	0.516	-0.19854257	0.099673151	-0.12862424	-0.73884995	0.038363811	-0.0071035087	-0.33208724	0.078722227	-0.14657362	-0.88361535	0.055903191	0.028364109	-0.32196097	0.11062122	-0.065476727	-0.85794271	0.084685198	-0.055015628	-0.37649623	0.031583651	-0.092003681	-0.93123069	0.035539391	-0.022757589	-0.43674819	0.45684437	-0.18429992	-0.7567914	0.44311195	0.081190489	-0.40983967	0.44281705	-0.065810779	-0.74057591	0.44424817	-0.048727764	-0.57111147	0.81912931	-0.24371679	-0.66894775	0.8482469	0.13388215	-0.5337856	0.92976751	-0.16863939	-0.57281855	0.93200764	0.076518559	-0.74822251	0.94112913	-0.082390613	-0.61900904	1.4021759	-0.21179458	-0.60982261	1.3925856	0.11190105	-0.69854701	1.4265349	-0.051527501	-0.77002551	1.0944827	-0.25628155	-0.60688598	1.0424773	0.19446021	-0.67515514	0.86939534	-0.2942239	-0.38380566	0.92668204	0.2025825
